<mxfile host="app.diagrams.net" agent="Mozilla/5.0 (Windows NT 10.0; Win64; x64) AppleWebKit/537.36 (KHTML, like Gecko) Chrome/130.0.0.0 Safari/537.36" version="24.8.3">
  <diagram name="Pagina-1" id="Ze4YOTjGqbHIclUpfA7t">
    <mxGraphModel dx="1036" dy="542" grid="1" gridSize="10" guides="1" tooltips="1" connect="1" arrows="1" fold="1" page="1" pageScale="1" pageWidth="827" pageHeight="1169" math="0" shadow="0">
      <root>
        <mxCell id="0" />
        <mxCell id="1" parent="0" />
        <mxCell id="NF8xGhJAom5jtMkGsSMy-6" style="edgeStyle=orthogonalEdgeStyle;rounded=0;orthogonalLoop=1;jettySize=auto;html=1;" edge="1" parent="1" source="NF8xGhJAom5jtMkGsSMy-1">
          <mxGeometry relative="1" as="geometry">
            <mxPoint x="140" y="265" as="targetPoint" />
          </mxGeometry>
        </mxCell>
        <mxCell id="NF8xGhJAom5jtMkGsSMy-1" value="Specifica dei requisiti" style="rounded=1;whiteSpace=wrap;html=1;fillColor=none;strokeColor=#2B95FF;" vertex="1" parent="1">
          <mxGeometry y="240" width="120" height="50" as="geometry" />
        </mxCell>
        <mxCell id="NF8xGhJAom5jtMkGsSMy-2" value="Definizione del software" style="rounded=1;whiteSpace=wrap;html=1;fillColor=none;strokeColor=#2B95FF;" vertex="1" parent="1">
          <mxGeometry x="160" y="210" width="120" height="50" as="geometry" />
        </mxCell>
        <mxCell id="NF8xGhJAom5jtMkGsSMy-3" value="Valutazione del software" style="rounded=1;whiteSpace=wrap;html=1;fillColor=none;strokeColor=#2B95FF;" vertex="1" parent="1">
          <mxGeometry x="160" y="270" width="120" height="50" as="geometry" />
        </mxCell>
        <mxCell id="NF8xGhJAom5jtMkGsSMy-16" style="edgeStyle=orthogonalEdgeStyle;rounded=0;orthogonalLoop=1;jettySize=auto;html=1;entryX=0.5;entryY=0;entryDx=0;entryDy=0;" edge="1" parent="1" source="NF8xGhJAom5jtMkGsSMy-4" target="NF8xGhJAom5jtMkGsSMy-1">
          <mxGeometry relative="1" as="geometry">
            <Array as="points">
              <mxPoint x="380" y="190" />
              <mxPoint x="60" y="190" />
            </Array>
          </mxGeometry>
        </mxCell>
        <mxCell id="NF8xGhJAom5jtMkGsSMy-18" style="edgeStyle=orthogonalEdgeStyle;rounded=0;orthogonalLoop=1;jettySize=auto;html=1;entryX=0;entryY=0.5;entryDx=0;entryDy=0;" edge="1" parent="1" source="NF8xGhJAom5jtMkGsSMy-4" target="NF8xGhJAom5jtMkGsSMy-17">
          <mxGeometry relative="1" as="geometry" />
        </mxCell>
        <mxCell id="NF8xGhJAom5jtMkGsSMy-4" value="Raffinamento dei requisiti" style="rounded=1;whiteSpace=wrap;html=1;fillColor=none;strokeColor=#2B95FF;" vertex="1" parent="1">
          <mxGeometry x="320" y="240" width="120" height="50" as="geometry" />
        </mxCell>
        <mxCell id="NF8xGhJAom5jtMkGsSMy-5" value="" style="endArrow=none;html=1;rounded=0;" edge="1" parent="1">
          <mxGeometry width="50" height="50" relative="1" as="geometry">
            <mxPoint x="140" y="310" as="sourcePoint" />
            <mxPoint x="140" y="220" as="targetPoint" />
          </mxGeometry>
        </mxCell>
        <mxCell id="NF8xGhJAom5jtMkGsSMy-9" style="edgeStyle=orthogonalEdgeStyle;rounded=0;orthogonalLoop=1;jettySize=auto;html=1;" edge="1" parent="1">
          <mxGeometry relative="1" as="geometry">
            <mxPoint x="160" y="294.89" as="targetPoint" />
            <mxPoint x="140" y="294.89" as="sourcePoint" />
          </mxGeometry>
        </mxCell>
        <mxCell id="NF8xGhJAom5jtMkGsSMy-10" style="edgeStyle=orthogonalEdgeStyle;rounded=0;orthogonalLoop=1;jettySize=auto;html=1;" edge="1" parent="1">
          <mxGeometry relative="1" as="geometry">
            <mxPoint x="160" y="240" as="targetPoint" />
            <mxPoint x="140" y="240" as="sourcePoint" />
          </mxGeometry>
        </mxCell>
        <mxCell id="NF8xGhJAom5jtMkGsSMy-11" style="edgeStyle=orthogonalEdgeStyle;rounded=0;orthogonalLoop=1;jettySize=auto;html=1;" edge="1" parent="1">
          <mxGeometry relative="1" as="geometry">
            <mxPoint x="300" y="294.9" as="targetPoint" />
            <mxPoint x="280" y="294.9" as="sourcePoint" />
          </mxGeometry>
        </mxCell>
        <mxCell id="NF8xGhJAom5jtMkGsSMy-12" style="edgeStyle=orthogonalEdgeStyle;rounded=0;orthogonalLoop=1;jettySize=auto;html=1;" edge="1" parent="1">
          <mxGeometry relative="1" as="geometry">
            <mxPoint x="300" y="239.81" as="targetPoint" />
            <mxPoint x="280" y="239.81" as="sourcePoint" />
          </mxGeometry>
        </mxCell>
        <mxCell id="NF8xGhJAom5jtMkGsSMy-13" value="" style="endArrow=none;html=1;rounded=0;" edge="1" parent="1">
          <mxGeometry width="50" height="50" relative="1" as="geometry">
            <mxPoint x="300" y="310" as="sourcePoint" />
            <mxPoint x="300" y="220" as="targetPoint" />
          </mxGeometry>
        </mxCell>
        <mxCell id="NF8xGhJAom5jtMkGsSMy-15" style="edgeStyle=orthogonalEdgeStyle;rounded=0;orthogonalLoop=1;jettySize=auto;html=1;" edge="1" parent="1">
          <mxGeometry relative="1" as="geometry">
            <mxPoint x="320" y="264.9" as="targetPoint" />
            <mxPoint x="300" y="264.9" as="sourcePoint" />
          </mxGeometry>
        </mxCell>
        <mxCell id="NF8xGhJAom5jtMkGsSMy-17" value="" style="rhombus;whiteSpace=wrap;html=1;fillColor=none;" vertex="1" parent="1">
          <mxGeometry x="480" y="247.5" width="35" height="35" as="geometry" />
        </mxCell>
        <mxCell id="NF8xGhJAom5jtMkGsSMy-19" style="edgeStyle=orthogonalEdgeStyle;rounded=0;orthogonalLoop=1;jettySize=auto;html=1;" edge="1" parent="1">
          <mxGeometry relative="1" as="geometry">
            <mxPoint x="535" y="265" as="targetPoint" />
            <mxPoint x="515" y="265" as="sourcePoint" />
          </mxGeometry>
        </mxCell>
        <mxCell id="NF8xGhJAom5jtMkGsSMy-20" value="" style="endArrow=none;html=1;rounded=0;" edge="1" parent="1">
          <mxGeometry width="50" height="50" relative="1" as="geometry">
            <mxPoint x="535" y="310" as="sourcePoint" />
            <mxPoint x="535" y="220" as="targetPoint" />
          </mxGeometry>
        </mxCell>
        <mxCell id="NF8xGhJAom5jtMkGsSMy-21" style="edgeStyle=orthogonalEdgeStyle;rounded=0;orthogonalLoop=1;jettySize=auto;html=1;" edge="1" parent="1">
          <mxGeometry relative="1" as="geometry">
            <mxPoint x="580" y="295" as="targetPoint" />
            <mxPoint x="535" y="294.89" as="sourcePoint" />
          </mxGeometry>
        </mxCell>
        <mxCell id="NF8xGhJAom5jtMkGsSMy-22" style="edgeStyle=orthogonalEdgeStyle;rounded=0;orthogonalLoop=1;jettySize=auto;html=1;entryX=0.5;entryY=1;entryDx=0;entryDy=0;" edge="1" parent="1" target="NF8xGhJAom5jtMkGsSMy-34">
          <mxGeometry relative="1" as="geometry">
            <mxPoint x="600" y="210" as="targetPoint" />
            <mxPoint x="535" y="240" as="sourcePoint" />
            <Array as="points">
              <mxPoint x="580" y="240" />
              <mxPoint x="580" y="230" />
              <mxPoint x="630" y="230" />
            </Array>
          </mxGeometry>
        </mxCell>
        <mxCell id="NF8xGhJAom5jtMkGsSMy-24" value="" style="endArrow=none;html=1;rounded=0;" edge="1" parent="1">
          <mxGeometry width="50" height="50" relative="1" as="geometry">
            <mxPoint x="580" y="340" as="sourcePoint" />
            <mxPoint x="580" y="250" as="targetPoint" />
          </mxGeometry>
        </mxCell>
        <mxCell id="NF8xGhJAom5jtMkGsSMy-25" style="edgeStyle=orthogonalEdgeStyle;rounded=0;orthogonalLoop=1;jettySize=auto;html=1;" edge="1" parent="1">
          <mxGeometry relative="1" as="geometry">
            <mxPoint x="600" y="324.89" as="targetPoint" />
            <mxPoint x="580" y="324.89" as="sourcePoint" />
          </mxGeometry>
        </mxCell>
        <mxCell id="NF8xGhJAom5jtMkGsSMy-26" style="edgeStyle=orthogonalEdgeStyle;rounded=0;orthogonalLoop=1;jettySize=auto;html=1;" edge="1" parent="1">
          <mxGeometry relative="1" as="geometry">
            <mxPoint x="600" y="270" as="targetPoint" />
            <mxPoint x="580" y="270" as="sourcePoint" />
          </mxGeometry>
        </mxCell>
        <mxCell id="NF8xGhJAom5jtMkGsSMy-27" value="Adattamento delle componenti" style="rounded=1;whiteSpace=wrap;html=1;fillColor=none;strokeColor=#2B95FF;" vertex="1" parent="1">
          <mxGeometry x="600" y="240" width="120" height="50" as="geometry" />
        </mxCell>
        <mxCell id="NF8xGhJAom5jtMkGsSMy-28" value="Sviluppo nuove componenti" style="rounded=1;whiteSpace=wrap;html=1;fillColor=none;strokeColor=#2B95FF;" vertex="1" parent="1">
          <mxGeometry x="600" y="300" width="120" height="50" as="geometry" />
        </mxCell>
        <mxCell id="NF8xGhJAom5jtMkGsSMy-29" value="Integrazione del sistema" style="rounded=1;whiteSpace=wrap;html=1;fillColor=none;strokeColor=#2B95FF;" vertex="1" parent="1">
          <mxGeometry x="760" y="270" width="120" height="50" as="geometry" />
        </mxCell>
        <mxCell id="NF8xGhJAom5jtMkGsSMy-30" value="" style="endArrow=none;html=1;rounded=0;" edge="1" parent="1">
          <mxGeometry width="50" height="50" relative="1" as="geometry">
            <mxPoint x="740" y="340" as="sourcePoint" />
            <mxPoint x="740" y="250" as="targetPoint" />
          </mxGeometry>
        </mxCell>
        <mxCell id="NF8xGhJAom5jtMkGsSMy-31" style="edgeStyle=orthogonalEdgeStyle;rounded=0;orthogonalLoop=1;jettySize=auto;html=1;" edge="1" parent="1">
          <mxGeometry relative="1" as="geometry">
            <mxPoint x="760" y="294.9" as="targetPoint" />
            <mxPoint x="740" y="294.9" as="sourcePoint" />
          </mxGeometry>
        </mxCell>
        <mxCell id="NF8xGhJAom5jtMkGsSMy-32" style="edgeStyle=orthogonalEdgeStyle;rounded=0;orthogonalLoop=1;jettySize=auto;html=1;" edge="1" parent="1">
          <mxGeometry relative="1" as="geometry">
            <mxPoint x="740" y="322.34999999999997" as="targetPoint" />
            <mxPoint x="720" y="322.34999999999997" as="sourcePoint" />
          </mxGeometry>
        </mxCell>
        <mxCell id="NF8xGhJAom5jtMkGsSMy-33" style="edgeStyle=orthogonalEdgeStyle;rounded=0;orthogonalLoop=1;jettySize=auto;html=1;" edge="1" parent="1">
          <mxGeometry relative="1" as="geometry">
            <mxPoint x="740" y="267.46" as="targetPoint" />
            <mxPoint x="720" y="267.46" as="sourcePoint" />
          </mxGeometry>
        </mxCell>
        <mxCell id="NF8xGhJAom5jtMkGsSMy-34" value="Configurazione applicazioni di sistema" style="rounded=1;whiteSpace=wrap;html=1;fillColor=none;strokeColor=#2B95FF;" vertex="1" parent="1">
          <mxGeometry x="570" y="140" width="120" height="50" as="geometry" />
        </mxCell>
        <mxCell id="NF8xGhJAom5jtMkGsSMy-35" value="Applicazioni di sistema disponibili" style="text;html=1;align=center;verticalAlign=middle;whiteSpace=wrap;rounded=0;" vertex="1" parent="1">
          <mxGeometry x="490" y="170" width="60" height="30" as="geometry" />
        </mxCell>
        <mxCell id="NF8xGhJAom5jtMkGsSMy-36" value="Componenti disponibili" style="text;html=1;align=center;verticalAlign=middle;whiteSpace=wrap;rounded=0;" vertex="1" parent="1">
          <mxGeometry x="490" y="330" width="60" height="30" as="geometry" />
        </mxCell>
      </root>
    </mxGraphModel>
  </diagram>
</mxfile>
